<?xml version="1.0" encoding="utf-8"?>
<!-- Generator: Adobe Illustrator 18.1.1, SVG Export Plug-In . SVG Version: 6.00 Build 0)  -->
<svg version="1.1" id="Layer_1" xmlns="http://www.w3.org/2000/svg" xmlns:xlink="http://www.w3.org/1999/xlink" x="0px" y="0px"
	 viewBox="0 0 1141.3 211" enable-background="new 0 0 1141.3 211" xml:space="preserve">
<g>
	<g>
		<path fill="#2E85BE" d="M273.1,29.6h-21.6V15.2h58.7v14.4h-21.6V86h-15.6V29.6z"/>
		<path fill="#2E85BE" d="M320.1,15.2h53.4v13.9h-38v14.4H369v13.9h-33.4v14.9h38.5V86h-54V15.2z"/>
		<path fill="#2E85BE" d="M380.8,50.6c0-20.1,15.2-36.6,36.9-36.6c13.4,0,20.9,5.1,27.4,11.5l-9.3,10.7c-5.5-5-10.1-7.9-18.2-7.9
			c-11.9,0-20.5,9.9-20.5,22.3c0,12.1,8.4,22.3,20.5,22.3c8.1,0,13.1-3.2,18.6-8.3l9.9,10.6c-7.3,7.8-15.4,12-29.1,12
			C396.3,87.3,380.8,71.2,380.8,50.6z"/>
		<path fill="#2E85BE" d="M473.1,29.6h-21.6V15.2h58.7v14.4h-21.6V86h-15.6V29.6z"/>
		<path fill="#2E85BE" d="M548.5,15.2h59.1V86H592V29.3h-27.9V86h-15.6V15.2z"/>
		<path fill="#2E85BE" d="M622.6,15.2h53.4v13.9h-38v14.4h33.4v13.9h-33.4v14.9h38.5V86h-54V15.2z"/>
		<path fill="#2E85BE" d="M704.9,29.6h-21.6V15.2h58.7v14.4h-21.6V86h-15.6V29.6z"/>
		<path fill="#2E85BE" d="M752,15.2h53.4v13.9h-38v14.4h33.4v13.9h-33.4v14.9h38.5V86h-54V15.2z"/>
		<path fill="#2E85BE" d="M817.8,15.2h29c16.9,0,27.1,10,27.1,24.7c0,16.4-12.8,24.9-28.6,24.9h-11.8V86h-15.6V15.2z M845.7,50.9
			c7.8,0,12.3-4.7,12.3-10.9c0-7-4.9-10.7-12.7-10.7h-12v21.7H845.7z"/>
		<path fill="#2E85BE" d="M899,41.6h18.7c16,0,24.9,8.7,24.9,22c0,14.5-10,22.5-26.4,22.5h-32.8V15.2h54.4v14.1H899V41.6z M899,54.6
			V72h17.2c7.3,0,10.8-2.8,10.8-9c0-5.5-3.5-8.4-10.9-8.4H899z"/>
		<path fill="#2E85BE" d="M1000.5,15.2h16.9l-27.2,54.8C984,82.3,976.9,87.2,967,87.2c-6.1,0-10.8-1.6-15.3-4.1l6.1-11.4
			c2.8,1.7,5.7,2.3,8.4,2.3c2.8,0,6.1-1.3,8.9-5.7l-28.3-53h17.4l19.2,37.5L1000.5,15.2z"/>
		<path fill="#2E85BE" d="M1025.7,15.2h29c16.9,0,27.1,10,27.1,24.7c0,16.4-12.8,24.9-28.6,24.9h-11.8V86h-15.6V15.2z M1053.6,50.9
			c7.8,0,12.3-4.7,12.3-10.9c0-7-4.9-10.7-12.7-10.7h-12v21.7H1053.6z"/>
		<path fill="#2E85BE" d="M1106.9,86h-15.6V15.2h49.5v14.1h-33.9V86z"/>
	</g>
</g>
<g>
	<g>
		<path fill="#F6872A" d="M253.4,158.1c0-20.1,15.2-36.6,36.9-36.6c13.4,0,20.9,5.1,27.4,11.5l-9.3,10.7c-5.5-5-10.1-7.9-18.2-7.9
			c-11.9,0-20.5,9.9-20.5,22.3c0,12.1,8.4,22.3,20.5,22.3c8.1,0,13.1-3.2,18.6-8.3l9.9,10.6c-7.3,7.8-15.4,12-29.1,12
			C268.9,194.7,253.4,178.6,253.4,158.1z"/>
		<path fill="#F6872A" d="M329.3,122.6h53.4v13.9h-38v14.4h33.4v13.9h-33.4v14.9h38.5v13.9h-54V122.6z"/>
		<path fill="#F6872A" d="M395.1,122.6h29c16.9,0,27.1,10,27.1,24.7c0,16.4-12.8,24.9-28.6,24.9h-11.8v21.3h-15.6V122.6z M423,158.4
			c7.8,0,12.4-4.7,12.4-10.9c0-7-4.9-10.7-12.7-10.7h-12v21.7H423z"/>
		<path fill="#F6872A" d="M477.1,137h-21.6v-14.4h58.7V137h-21.6v56.5h-15.6V137z"/>
		<path fill="#F6872A" d="M585.3,193.5h-15.4V147l-31,46.5h-14.7v-70.9h15.4v46.5l31.2-46.5h14.5V193.5z"/>
		<path fill="#F6872A" d="M631.1,196.3v-7.7c-21.9,0-35.1-13.6-35.1-31.5c0-17.7,13.4-30.8,35.1-30.8v-6.5h15.6v6.5
			c21.7,0,35.1,13.1,35.1,30.9s-13.3,31.4-35.1,31.4v7.7H631.1z M631.1,140.3c-11.4,0-19.1,6.8-19.1,17.2c0,10.6,7.7,17.3,19.1,17.3
			V140.3z M646.7,174.8c11.4,0,19-6.7,19-17.3c0-10.4-7.6-17.2-19-17.2V174.8z"/>
		<path fill="#F6872A" d="M753.6,193.5h-15.4V147l-31,46.5h-14.7v-70.9h15.4v46.5l31.2-46.5h14.5V193.5z"/>
		<path fill="#F6872A" d="M768.6,122.6h15.6v31l28.7-31h18.8l-28.8,30.1l30.2,40.8h-18.7l-22-30.2l-8.2,8.5v21.7h-15.6V122.6z"/>
		<path fill="#F6872A" d="M864.7,122.1h14.4l30.4,71.4h-16.3l-6.5-15.9h-30l-6.5,15.9h-15.9L864.7,122.1z M881.1,163.8l-9.4-23
			l-9.4,23H881.1z"/>
		<path fill="#F6872A" d="M970.9,193.5h-52.5v-70.9H934v56.8h27.9v-56.8h15.6v56.8h8.4l-2,28.8h-13V193.5z"/>
		<path fill="#F6872A" d="M1055.9,193.5h-15.4V147l-31,46.5h-14.7v-70.9h15.4v46.5l31.2-46.5h14.5V193.5z"/>
		<path fill="#F6872A" d="M1131.9,193.5h-15.4V147l-31,46.5h-14.7v-70.9h15.4v46.5l31.2-46.5h14.5V193.5z"/>
	</g>
</g>
<path fill-rule="evenodd" clip-rule="evenodd" fill="#F6872A" d="M153.8,73c19.1,0,38.1,0,57.2,0v18.1h-14.7v24.3h-27.8V91.1h-14.7
	V73L153.8,73z M41.3,141L41.3,141c-8.7,0-15.8-7.1-15.8-15.8V78.6c0-16,13-29,29-29c16,0,29,13,29,29s-13,29-29,29
	c-2.6,0-5.1-0.3-7.4-1V89.4c2.1,1.4,4.6,2.2,7.3,2.2c7.2,0,13-5.8,13-13c0-7.2-5.8-13-13-13s-13,5.8-13,13V141L41.3,141z
	 M181.4,35.4c-16.7-9.1-45.5-21.7-77.8-21.7c-50.8,0-97.8,24.9-97.8,81.2c0,56.3,43.9,80.5,95.1,80.5c36.3,0,66.1-14.2,80.5-22.4
	v-32.2c-10.4,6.2-29.6,15.6-49.6,15.6c-56.9,0-54.8-82.4-1.8-82.6c19.9-0.1,39.3,7.8,51.4,14V35.4z"/>
<path fill-rule="evenodd" clip-rule="evenodd" fill="#2E85BE" d="M190.2,158.6l0.1-0.7h-1.7l-9.4,1.2l-4.1-3.7l-0.6,0.3v1.7
	l-0.2,0.6l-4-0.6l0-3l-4.6-5.4l-0.9,0.5c0-11.2-0.5-9.7-3.8-12.6c-0.2-0.7-0.1-1.4-0.4-2.1c0.8-1,0.4-1.7-0.8-2.3l-0.1-1.7l0.7,0
	l-0.1-0.5l-0.5-0.1l-0.1-0.4l-0.4,0l-0.1,0.5l-0.5,0.1l0.1,0.5l0.5,0.1c0.4,0.1,0,1,0,1.4c-0.1,0.5-0.7,0.9-1.1,1.2
	c-0.6,0.5-0.9,0.6-0.7,1.2c0.6,1.7,0.4,2.7,0,2.9c-1.5,0.8-3.1,4.1-2.9,6.7c0,3,0.5,5.1-0.3,5.9c-1.4,1.4-3.2,1.2-5,6.5l-2.5,0.1
	l-7.7-2.2l0.3-0.9h-6.1l0.1-16.8l-5.4-3.7c0.6-1.7-0.6-4.6-0.3-6.9c0.7-1.1,0.8-2.3-0.5-3.6l-1.7-0.2l0-0.5l0.6,0l-0.1-0.6l-0.5,0
	l-0.1-0.5l-0.5,0l0,0.5l-0.5,0.1c-0.3,0,0,0.8-0.2,1.1c-0.7,0.1-2,1.7-2.1,2.8c0.5,0.8,0.7,0.9,1,1.5c0.7,1.5,0.6,5.1-1.3,7.2
	c-1.2,1.3-4.2,1.4-4.6,1.7l-0.6,0.5l1,0l0.3,5l0.4,12.2l-16.5,0.3c-0.2-0.7-3.5-18,0.3-19.4l-1.8-0.9l-0.5-13.6l0.6,0.2l2-2.4
	c-3.8-1.6-2,2.3-3.6-3.2c-0.8-2.6-1.7-3.8-3-5.3c-2.3-2.8-1.1-6.3-0.1-9.8c0-0.3-1-0.3-1-0.8c-0.1-1.6-0.7-4.5-2-4.4
	c-0.4,0-0.3-24.7-0.3-27.9v-1.7l-1-32.1c0-0.2,0.7,0,0.6-0.2c-1.4-3.5,1.6-6.9,4.4-8c1.4-0.5,0-2.4-0.1-3.5c0-0.7-3.7,3-4.3,2.6
	c-0.8-0.6,0.9-2.4,0.7-2.4c-0.7-0.2-1.2-2.1-1.8-2.1c-0.1,0.2-0.2,0.6-0.3,1c-0.1,0.2-0.9,1.5-1,2.6c0,0.4-1.1-0.6-1.2-0.3
	c-0.2,0.5-0.3,0.5-0.3,1.1c0.1,0.7,1.7,1.6,1.7,2.2c0,1-0.2,1.8-0.1,3c0.1,1.3-0.3,2.4-0.5,3.4l0.6,1.2c-0.9,9.8,0,60.3-2.4,61.3
	c-1,0.4-0.9,1.8-1.4,4.1c-0.2,0.6-1.1,0.7-1.4,1.3c0.7,0.4,1.2,0.4,1.5,1.1c0.9,1.9,0.5,4.6-1.1,7.2c-3.9,4.3-2.9,3.4-3.7,8.9h-2.8
	c1.8,3.3,2.6,2.7,2.8,3.5c0.2,0.7-0.3,2.9-0.3,6c0,1.7,0,3.1,0,4.7c0.1,3.9-0.5,1.2-2.5,2.3c0.4,1.5,1.4,1.6,1.5,2.4
	c0.6,2.5-0.5,3.1-0.6,7.7c0.2,0.3-0.8,5.1-2.2,7.5c-0.5,0.8-1.2,1.2-1.6,1.4c0.9,0.6,1.6-0.1,2,0.7c0.5,0.8,0.6,3.2,0.3,6
	c-0.2,1.4-3.9,5.3-6.1,5.3h-2.8c-1.7,0-1.9-1-2.2-2.2c-3.1,0-8.5,0.4-11.1-0.2c-2.5-0.5-2.9-3.6-6.7-2.1c-3.6,1.4-2.1,3.7-7,3.3
	c-3.6-0.3-5.2-0.8-7.3-2.1c-7-4-8.8,1-15.3,1.3C-95.1,204.4,337.8,196,190.2,158.6z"/>
</svg>
